<svg width="124" height="124" viewBox="0 0 124 124" fill="none" xmlns="http://www.w3.org/2000/svg">
<g clip-path="url(#clip0)">
<path d="M66.0197 30.7053C66.0197 30.7053 55.8413 30.0336 38.4968 35.4586C20.8268 40.9869 10.8035 48.8248 10.8035 48.8248C10.8035 48.8248 37.1432 34.1153 66.8722 33.2834L66.0197 30.7053ZM104 46.6961L105.328 46.6083C105.328 46.6083 97.743 37.4116 83.2247 32.9269C91.388 36.2439 98.487 40.6408 104 46.6961V46.6961ZM106.17 50.5194C106.371 50.1681 107.028 51.6406 107.529 52.2606C107.549 52.3846 107.58 52.4621 107.296 52.4001C107.27 52.2709 107.229 52.2347 107.229 52.2347C107.229 52.2347 106.532 51.8214 106.315 51.5269C106.103 51.2324 106.061 50.7158 106.17 50.5194V50.5194ZM123.985 94.3276C123.985 94.3276 125.597 75.8412 96.5495 71.5787C92.2302 70.9557 87.8728 70.6329 83.5088 70.6126C60.2278 70.9226 59.3805 43.7614 76.9213 42.3923C84.1908 41.7929 92.8708 45.7144 101.36 49.6669C101.324 50.7209 101.37 51.6561 102.062 52.5189C102.755 53.3869 105.41 54.3272 106.263 54.8181C107.11 55.3037 109.833 57.0397 111.502 59.2097C111.864 58.5329 114.881 56.5644 114.881 56.5644C114.881 56.5644 114.158 56.5799 112.478 55.9496C110.794 55.3193 108.795 53.4179 108.748 53.3094C108.696 53.1958 108.671 53.0253 109.058 52.9478C109.363 52.6946 108.686 51.8783 108.386 51.5786C108.087 51.2789 106.087 47.8793 106.041 47.8069C105.994 47.7243 105.979 47.6468 105.834 47.5486C105.395 47.4091 103.457 47.7553 103.457 47.7553C103.457 47.7553 100.487 46.2931 99.4583 43.1414C99.4738 43.6943 98.9468 44.2988 99.4583 45.5646C97.9083 44.9084 96.5753 43.7873 95.5213 41.0179C94.9013 42.5938 95.5213 43.5961 95.5213 43.5961C95.5213 43.5961 91.8685 42.5731 91.2847 39.2044C90.644 40.7183 91.2847 41.6276 91.2847 41.6276C91.2847 41.6276 85.3275 38.5173 75.4282 38.4759C68.7993 37.8663 67.4198 26.2103 68.0398 24.2469C68.0398 24.2469 58.4815 19.2094 39.6593 16.9826C20.8423 14.7609 5.41467 16.6468 5.41467 16.6468C5.41467 16.6468 38.7397 15.0451 65.4358 25.8589C66.3452 29.9148 69.0732 36.6779 70.5457 39.9278C66.3348 42.8366 61.5918 45.5698 60.853 55.2728C60.1142 64.9758 68.4583 73.5111 78.802 73.7694C88.6187 74.2964 95.4077 74.3687 103.633 78.6364C111.486 82.9764 117.924 96.2031 118.565 108.102C119.247 99.2721 115.935 80.2897 100.481 74.5289C122.083 78.3109 123.985 94.3276 123.985 94.3276V94.3276ZM65.5133 29.2586L64.7383 26.7528C64.7383 26.7528 51.9043 24.4743 34.658 25.6988C17.4117 26.9233 0 32.9631 0 32.9631C0 32.9631 35.6293 23.9989 65.5133 29.2586Z" fill="white"/>
</g>
<defs>
<clipPath id="clip0">
<rect width="124" height="124" fill="white"/>
</clipPath>
</defs>
</svg>
