<svg width="124" height="93" viewBox="0 0 124 93" fill="none" xmlns="http://www.w3.org/2000/svg">
<path d="M66.0197 14.8053C66.0197 14.8053 55.8413 14.1337 38.4968 19.5587C20.8268 25.087 10.8035 32.9248 10.8035 32.9248C10.8035 32.9248 37.1432 18.2153 66.8722 17.3835L66.0197 14.8053ZM104 30.7962L105.328 30.7083C105.328 30.7083 97.743 21.5117 83.2247 17.027C91.388 20.344 98.487 24.7408 104 30.7962V30.7962ZM106.17 34.6195C106.371 34.2682 107.028 35.7407 107.529 36.3607C107.549 36.4847 107.58 36.5622 107.296 36.5002C107.27 36.371 107.229 36.3348 107.229 36.3348C107.229 36.3348 106.532 35.9215 106.315 35.627C106.103 35.3325 106.061 34.8158 106.17 34.6195V34.6195ZM123.985 78.4277C123.985 78.4277 125.597 59.9413 96.5495 55.6788C92.2302 55.0558 87.8728 54.733 83.5088 54.7127C60.2278 55.0227 59.3805 27.8615 76.9213 26.4923C84.1908 25.893 92.8708 29.8145 101.36 33.767C101.324 34.821 101.37 35.7562 102.062 36.619C102.755 37.487 105.41 38.4273 106.263 38.9182C107.11 39.4038 109.833 41.1398 111.502 43.3098C111.864 42.633 114.881 40.6645 114.881 40.6645C114.881 40.6645 114.158 40.68 112.478 40.0497C110.794 39.4194 108.795 37.518 108.748 37.4095C108.696 37.2958 108.671 37.1253 109.058 37.0478C109.363 36.7947 108.686 35.9783 108.386 35.6787C108.087 35.379 106.087 31.9794 106.041 31.907C105.994 31.8244 105.979 31.7468 105.834 31.6487C105.395 31.5092 103.457 31.8553 103.457 31.8553C103.457 31.8553 100.487 30.3932 99.4583 27.2415C99.4738 27.7944 98.9468 28.3989 99.4583 29.6647C97.9083 29.0085 96.5753 27.8873 95.5213 25.118C94.9013 26.6938 95.5213 27.6962 95.5213 27.6962C95.5213 27.6962 91.8685 26.6732 91.2847 23.3045C90.644 24.8183 91.2847 25.7277 91.2847 25.7277C91.2847 25.7277 85.3275 22.6173 75.4282 22.576C68.7993 21.9663 67.4198 10.3103 68.0398 8.34702C68.0398 8.34702 58.4815 3.30952 39.6593 1.08268C20.8423 -1.13898 5.41467 0.746849 5.41467 0.746849C5.41467 0.746849 38.7397 -0.854816 65.4358 9.95902C66.3452 14.0149 69.0732 20.778 70.5457 24.0279C66.3348 26.9367 61.5918 29.6698 60.853 39.3728C60.1142 49.0758 68.4583 57.6112 78.802 57.8695C88.6187 58.3965 95.4077 58.4688 103.633 62.7365C111.486 67.0765 117.924 80.3032 118.565 92.202C119.247 83.3722 115.935 64.3898 100.481 58.629C122.083 62.411 123.985 78.4277 123.985 78.4277V78.4277ZM65.5133 13.3587L64.7383 10.8528C64.7383 10.8528 51.9043 8.57435 34.658 9.79885C17.4117 11.0233 0 17.0632 0 17.0632C0 17.0632 35.6293 8.09902 65.5133 13.3587Z" fill="#0089DB"/>
</svg>
