<svg width="97" height="97" viewBox="0 0 97 97" fill="none" xmlns="http://www.w3.org/2000/svg">
<path d="M32.7064 5.87905L32.7681 5.85743L32.8288 5.83314C45.6318 0.706903 60.0228 2.83194 71.6315 9.85067C83.2393 16.8689 91.7698 28.6007 93.094 42.3178L93.104 42.4212L93.1211 42.5236C97.2749 67.3959 76.4915 92.8215 51.3198 93.5507L51.2141 93.5538L51.1088 93.5643C27.1532 95.9548 3.85569 75.511 3.17664 51.4676L3.17396 51.3727L3.16529 51.2782C1.37947 31.8103 14.2712 12.344 32.7064 5.87905Z" fill="white" stroke="black" stroke-width="6"/>
<path fill-rule="evenodd" clip-rule="evenodd" d="M34.4922 45.5903C46.8745 35.474 58.9871 25.007 71.6392 15.1875C65.0029 25.3847 58.1778 35.447 51.5415 45.6442C45.8494 45.6712 40.1573 45.6712 34.4922 45.5903Z" fill="#010101"/>
<path fill-rule="evenodd" clip-rule="evenodd" d="M44.9595 51.2288C50.6786 51.2288 56.3707 51.2288 62.0627 51.3097C49.5995 61.372 37.5409 71.9199 24.8618 81.7125C31.4981 71.5153 38.3232 61.426 44.9595 51.2288Z" fill="#010101"/>
</svg>
