<svg width="101" height="102" viewBox="0 0 101 102" fill="none" xmlns="http://www.w3.org/2000/svg">
<path d="M1.21891 0.762112C1.04939 0.765145 0.882727 0.806321 0.731296 0.882582C0.579865 0.958844 0.447554 1.06823 0.344187 1.20263C0.24082 1.33703 0.169051 1.49298 0.134206 1.65891C0.0993618 1.82484 0.102337 1.99649 0.142912 2.16111L24.5369 100.903C24.5843 101.096 24.6815 101.272 24.8189 101.415C24.9562 101.558 25.1288 101.663 25.3193 101.718C25.5097 101.773 25.7114 101.777 25.9039 101.73C26.0964 101.682 26.273 101.585 26.4159 101.447L99.8019 30.8571C99.9449 30.7197 100.049 30.547 100.104 30.3565C100.159 30.166 100.163 29.9643 100.116 29.7718C100.068 29.5793 99.9704 29.4027 99.8328 29.2599C99.6953 29.1171 99.5225 29.013 99.3319 28.9581L1.54991 0.806112C1.44237 0.77512 1.33082 0.760292 1.21891 0.762112V0.762112ZM2.80291 3.51611L96.8269 30.5861L26.2609 98.4631L2.80291 3.51611V3.51611Z" fill="white"/>
<path d="M50.1368 14.8401C49.9882 14.8369 49.8404 14.8631 49.7019 14.9171C49.5634 14.9712 49.4369 15.0521 49.3298 15.1551L12.6538 50.4601C12.5111 50.5976 12.407 50.7703 12.3522 50.9607C12.2973 51.1512 12.2936 51.3527 12.3413 51.5451C12.3891 51.7374 12.4866 51.9138 12.6241 52.0566C12.7617 52.1993 12.9343 52.3033 13.1248 52.3581L61.9838 66.4401C62.1741 66.495 62.3755 66.4988 62.5678 66.4513C62.76 66.4037 62.9364 66.3064 63.0792 66.1691C63.2219 66.0318 63.3261 65.8593 63.3811 65.6691C63.4362 65.4788 63.4402 65.2774 63.3928 65.0851L51.2098 15.6981C51.1502 15.457 51.0128 15.2422 50.8188 15.0871C50.6248 14.932 50.3851 14.8452 50.1368 14.8401V14.8401ZM49.4858 18.1401L60.7338 63.7301L15.6298 50.7301L49.4858 18.1401Z" fill="white"/>
<path d="M31.914 32.3131C31.7445 32.3162 31.5778 32.3573 31.4264 32.4336C31.2749 32.5099 31.1426 32.6193 31.0393 32.7537C30.9359 32.8881 30.8641 33.044 30.8293 33.2099C30.7944 33.3759 30.7974 33.5475 30.838 33.7121L36.892 58.2431C36.9394 58.4358 37.0367 58.6126 37.1742 58.7557C37.3116 58.8987 37.4844 59.003 37.675 59.0581C37.8656 59.1132 38.0674 59.117 38.26 59.0693C38.4526 59.0215 38.6292 58.9239 38.772 58.7861L56.994 41.2231C57.1367 41.0856 57.2407 40.9128 57.2955 40.7223C57.3503 40.5318 57.3539 40.3302 57.3061 40.1378C57.2582 39.9455 57.1606 39.7691 57.0229 39.6264C56.8853 39.4837 56.7125 39.3798 56.522 39.3251L32.245 32.3571C32.1374 32.3261 32.0259 32.3113 31.914 32.3131V32.3131ZM33.497 35.0641L54.019 40.9541L38.614 55.8001L33.497 35.0641V35.0641Z" fill="white"/>
<path d="M25.9018 7.8091C25.7531 7.80603 25.6053 7.83236 25.4668 7.88659C25.3283 7.94081 25.2019 8.02187 25.0948 8.1251L6.8728 25.6871C6.73008 25.8247 6.6261 25.9974 6.57131 26.1879C6.51653 26.3784 6.51287 26.58 6.56071 26.7724C6.60855 26.9648 6.7062 27.1412 6.84384 27.2838C6.98148 27.4265 7.15426 27.5304 7.3448 27.5851L31.6178 34.5541C31.8082 34.6088 32.0096 34.6125 32.2018 34.5648C32.394 34.5171 32.5703 34.4197 32.713 34.2823C32.8556 34.1449 32.9596 33.9724 33.0145 33.7821C33.0695 33.5918 33.0733 33.3904 33.0258 33.1981L26.9748 8.6681C26.9156 8.42661 26.7784 8.2114 26.5843 8.0559C26.3903 7.9004 26.1504 7.81329 25.9018 7.80811V7.8091ZM25.2518 11.1091L30.3658 31.8451L9.8488 25.9551L25.2518 11.1081V11.1091ZM74.4528 21.7931C74.3043 21.7902 74.1566 21.8166 74.0183 21.8708C73.88 21.925 73.7538 22.006 73.6468 22.1091L55.4228 39.6701C55.2798 39.8077 55.1756 39.9805 55.1207 40.1711C55.0658 40.3617 55.062 40.5635 55.1099 40.756C55.1577 40.9486 55.2555 41.1251 55.3933 41.2679C55.5311 41.4106 55.7041 41.5145 55.8948 41.5691L80.1688 48.5371C80.3592 48.5918 80.5605 48.5955 80.7528 48.5478C80.945 48.5001 81.1213 48.4027 81.264 48.2653C81.4066 48.1279 81.5106 47.9554 81.5655 47.7651C81.6205 47.5748 81.6243 47.3734 81.5768 47.1811L75.5268 22.6511C75.4674 22.4096 75.3299 22.1945 75.1357 22.0392C74.9415 21.8839 74.7014 21.797 74.4528 21.7921V21.7931ZM73.8028 25.0931L78.9168 45.8301L58.3998 39.9401L73.8028 25.0941V25.0931ZM37.9438 56.8641C37.6668 56.8747 37.4034 56.9868 37.2038 57.1791L18.9818 74.7421C18.8391 74.8797 18.7351 75.0524 18.6803 75.2429C18.6255 75.4335 18.6219 75.635 18.6697 75.8274C18.7176 76.0198 18.8152 76.1962 18.9528 76.3388C19.0905 76.4815 19.2633 76.5854 19.4538 76.6401L43.7318 83.6081C43.922 83.6625 44.1231 83.666 44.3151 83.6183C44.5071 83.5705 44.6831 83.4731 44.8256 83.3359C44.9681 83.1987 45.072 83.0264 45.127 82.8364C45.182 82.6463 45.186 82.4452 45.1388 82.2531L39.0838 57.7221C39.0216 57.4697 38.8742 57.2465 38.6665 57.0902C38.4588 56.9339 38.2036 56.854 37.9438 56.8641V56.8641ZM37.3618 60.1641L42.4798 80.9011L21.9578 75.0111L37.3618 60.1651V60.1641Z" fill="white"/>
</svg>
