<svg width="128" height="128" viewBox="0 0 128 128" fill="none" xmlns="http://www.w3.org/2000/svg">
<circle cx="64" cy="64" r="64" fill="#0B1117"/>
<path d="M21.1088 19.0001C20.9393 19.0032 20.7726 19.0444 20.6212 19.1206C20.4698 19.1969 20.3374 19.3063 20.2341 19.4407C20.1307 19.5751 20.0589 19.731 20.0241 19.8969C19.9893 20.0629 19.9922 20.2345 20.0328 20.3991L44.4268 119.141C44.4742 119.334 44.5714 119.51 44.7088 119.653C44.8461 119.796 45.0187 119.901 45.2092 119.956C45.3996 120.011 45.6013 120.015 45.7938 119.968C45.9863 119.92 46.1629 119.823 46.3058 119.685L119.692 49.0951C119.835 48.9577 119.939 48.7851 119.994 48.5946C120.049 48.404 120.053 48.2024 120.005 48.0099C119.958 47.8173 119.86 47.6408 119.723 47.4979C119.585 47.3551 119.412 47.251 119.222 47.1961L21.4398 19.0441C21.3323 19.0132 21.2207 18.9983 21.1088 19.0001V19.0001ZM22.6928 21.7542L116.717 48.8241L46.1508 116.701L22.6928 21.7542V21.7542Z" fill="white"/>
<path d="M70.0269 33.0781C69.8783 33.0749 69.7305 33.1011 69.592 33.1552C69.4535 33.2092 69.3271 33.2901 69.2199 33.3931L32.5439 68.6981C32.4012 68.8357 32.2972 69.0083 32.2423 69.1988C32.1875 69.3892 32.1837 69.5908 32.2315 69.7831C32.2792 69.9755 32.3767 70.1519 32.5143 70.2946C32.6518 70.4373 32.8245 70.5413 33.0149 70.5961L81.8739 84.6781C82.0642 84.733 82.2656 84.7369 82.4579 84.6893C82.6502 84.6417 82.8266 84.5444 82.9693 84.4071C83.1121 84.2698 83.2162 84.0974 83.2713 83.9071C83.3263 83.7169 83.3303 83.5155 83.2829 83.3231L71.0999 33.9361C71.0404 33.695 70.9029 33.4803 70.709 33.3251C70.515 33.17 70.2753 33.0832 70.0269 33.0781V33.0781ZM69.3759 36.3781L80.6239 81.9681L35.5199 68.9681L69.3759 36.3781Z" fill="white"/>
<path d="M51.8039 50.5512C51.6344 50.5542 51.4677 50.5954 51.3163 50.6716C51.1648 50.7479 51.0325 50.8573 50.9291 50.9917C50.8258 51.1261 50.754 51.282 50.7192 51.448C50.6843 51.6139 50.6873 51.7856 50.7279 51.9502L56.7819 76.4812C56.8293 76.6738 56.9266 76.8506 57.0641 76.9937C57.2015 77.1368 57.3743 77.2411 57.5649 77.2961C57.7555 77.3512 57.9573 77.3551 58.1499 77.3073C58.3424 77.2596 58.519 77.1619 58.6619 77.0242L76.8839 59.4612C77.0266 59.3236 77.1306 59.1509 77.1854 58.9604C77.2401 58.7698 77.2438 58.5683 77.196 58.3759C77.1481 58.1835 77.0505 58.0071 76.9128 57.8644C76.7752 57.7218 76.6024 57.6179 76.4119 57.5632L52.1349 50.5952C52.0273 50.5642 51.9158 50.5494 51.8039 50.5512V50.5512ZM53.3869 53.3022L73.9089 59.1922L58.5039 74.0382L53.3869 53.3022V53.3022Z" fill="white"/>
<path d="M45.7917 26.0471C45.643 26.0441 45.4952 26.0704 45.3567 26.1246C45.2182 26.1789 45.0918 26.2599 44.9847 26.3631L26.7627 43.9251C26.62 44.0627 26.516 44.2355 26.4612 44.426C26.4064 44.6165 26.4028 44.8181 26.4506 45.0104C26.4984 45.2028 26.5961 45.3792 26.7337 45.5219C26.8714 45.6645 27.0442 45.7684 27.2347 45.8231L51.5077 52.7921C51.698 52.8469 51.8994 52.8506 52.0917 52.8029C52.2839 52.7551 52.4602 52.6577 52.6029 52.5203C52.7455 52.3829 52.8495 52.2104 52.9044 52.0201C52.9593 51.8298 52.9632 51.6284 52.9157 51.4361L46.8647 26.9061C46.8055 26.6646 46.6682 26.4494 46.4742 26.2939C46.2802 26.1384 46.0403 26.0513 45.7917 26.0461V26.0471ZM45.1417 29.3471L50.2557 50.0831L29.7387 44.1931L45.1417 29.3461V29.3471ZM94.3427 40.0311C94.1942 40.0282 94.0465 40.0546 93.9082 40.1088C93.7699 40.163 93.6436 40.244 93.5367 40.3471L75.3127 57.9081C75.1697 58.0457 75.0655 58.2185 75.0106 58.4091C74.9556 58.5998 74.9519 58.8015 74.9998 58.9941C75.0476 59.1866 75.1454 59.3632 75.2832 59.5059C75.421 59.6486 75.594 59.7525 75.7847 59.8071L100.059 66.7751C100.249 66.8299 100.45 66.8336 100.643 66.7859C100.835 66.7381 101.011 66.6407 101.154 66.5033C101.297 66.3659 101.401 66.1934 101.455 66.0031C101.51 65.8128 101.514 65.6114 101.467 65.4191L95.4167 40.8891C95.3573 40.6477 95.2198 40.4326 95.0256 40.2772C94.8314 40.1219 94.5913 40.0351 94.3427 40.0301V40.0311ZM93.6927 43.3311L98.8067 64.0681L78.2897 58.1781L93.6927 43.3321V43.3311ZM57.8337 75.1021C57.5567 75.1127 57.2933 75.2249 57.0937 75.4171L38.8717 92.9801C38.729 93.1177 38.625 93.2905 38.5702 93.481C38.5154 93.6715 38.5118 93.8731 38.5596 94.0654C38.6074 94.2578 38.7051 94.4342 38.8427 94.5769C38.9804 94.7195 39.1532 94.8234 39.3437 94.8781L63.6217 101.846C63.8119 101.901 64.013 101.904 64.205 101.856C64.397 101.809 64.573 101.711 64.7155 101.574C64.858 101.437 64.9619 101.264 65.0169 101.074C65.0719 100.884 65.0759 100.683 65.0287 100.491L58.9737 75.9601C58.9115 75.7078 58.7641 75.4845 58.5564 75.3282C58.3487 75.1719 58.0934 75.0921 57.8337 75.1021V75.1021ZM57.2517 78.4021L62.3697 99.1391L41.8477 93.2491L57.2517 78.4031V78.4021Z" fill="white"/>
</svg>
